<svg width="21" height="21" viewBox="0 0 21 21" fill="none" xmlns="http://www.w3.org/2000/svg">
<path d="M11.5 1.30762C11.5 0.755332 11.0523 0.307617 10.5 0.307617C9.94772 0.307617 9.5 0.755332 9.5 1.30762V9.5H1.30762C0.755333 9.50001 0.307618 9.94772 0.307617 10.5C0.307618 11.0523 0.755333 11.5 1.30762 11.5H9.5V19.6924C9.50001 20.2447 9.94772 20.6924 10.5 20.6924C11.0523 20.6924 11.5 20.2447 11.5 19.6924V11.5L19.6924 11.5C20.2447 11.5 20.6924 11.0523 20.6924 10.5C20.6924 9.94772 20.2447 9.50001 19.6924 9.50001L11.5 9.5V1.30762Z" fill="#3F5974"/>
</svg>
