<svg width="40" height="40" viewBox="0 0 40 40" fill="none" xmlns="http://www.w3.org/2000/svg">
<path fill-rule="evenodd" clip-rule="evenodd" d="M19.9999 8C17.4799 8 15.4313 10.053 15.4313 12.5711C15.4313 14.3246 16.4247 15.8522 17.8788 16.6185C14.4864 17.5419 12 20.6271 12 24.3009V27.9154C12 28.0223 12.0428 28.1249 12.1188 28.2005C12.1949 28.2761 12.2981 28.3186 12.4057 28.3186H13.8593C13.9669 28.3186 14.0701 28.2761 14.1462 28.2005C14.2222 28.1249 14.265 28.0223 14.265 27.9154C14.265 27.8085 14.2222 27.7059 14.1461 27.6303C14.0701 27.5547 13.9669 27.5122 13.8593 27.5122H12.8115V24.3009C12.8115 20.3277 16.0109 17.1423 20 17.1423C23.9891 17.1423 27.1886 20.3277 27.1886 24.3009V27.5122H26.1408C26.0332 27.5122 25.93 27.5547 25.8539 27.6303C25.7778 27.7059 25.7351 27.8085 25.7351 27.9154C25.7351 28.0223 25.7778 28.1249 25.8539 28.2005C25.93 28.2761 26.0332 28.3186 26.1408 28.3186H27.5943C27.7019 28.3186 27.8051 28.2761 27.8812 28.2005C27.9572 28.1249 28 28.0223 28 27.9154V24.3009C28 20.6271 25.5135 17.5417 22.121 16.6184C23.575 15.8521 24.5684 14.3246 24.5684 12.5711C24.5684 10.053 22.5198 8 19.9999 8ZM19.9999 8.80639C22.078 8.80639 23.757 10.4855 23.757 12.5711C23.757 14.6568 22.078 16.3359 19.9999 16.3359C17.9217 16.3359 16.2427 14.6568 16.2427 12.5711C16.2427 10.4855 17.9217 8.80639 19.9999 8.80639ZM19.2549 20.7661C19.1473 20.7661 19.0441 20.8086 18.9681 20.8842C18.892 20.9599 18.8492 21.0624 18.8492 21.1693V21.5825C18.4239 21.6915 18.0165 21.8601 17.6386 22.0836L17.3501 21.7947C17.3124 21.757 17.2676 21.727 17.2181 21.7065C17.1687 21.6861 17.1157 21.6756 17.0622 21.6756C17.0086 21.6756 16.9556 21.6861 16.9062 21.7065C16.8568 21.727 16.8119 21.757 16.7742 21.7947L15.7206 22.8497C15.6452 22.9252 15.6029 23.0273 15.6029 23.1337C15.6029 23.2401 15.6452 23.3422 15.7206 23.4177L16.0123 23.7098C15.7877 24.0894 15.6186 24.4988 15.5096 24.9262H15.1004C14.9928 24.9262 14.8897 24.9687 14.8136 25.0443C14.7375 25.1199 14.6947 25.2224 14.6947 25.3293V26.8214C14.6947 26.9284 14.7375 27.0309 14.8136 27.1065C14.8897 27.1821 14.9928 27.2246 15.1004 27.2246H15.5096C15.6186 27.6519 15.7877 28.0614 16.0123 28.441L15.7206 28.7331C15.6452 28.8086 15.6029 28.9107 15.6029 29.0171C15.6029 29.1235 15.6452 29.2256 15.7206 29.3011L16.7742 30.3561C16.8119 30.3938 16.8568 30.4238 16.9062 30.4442C16.9556 30.4647 17.0086 30.4752 17.0622 30.4752C17.1157 30.4752 17.1687 30.4647 17.2181 30.4442C17.2676 30.4238 17.3124 30.3938 17.3501 30.3561L17.6386 30.0672C18.0164 30.2907 18.4239 30.4593 18.8492 30.5682V30.9814C18.8492 31.0884 18.892 31.1909 18.9681 31.2665C19.0442 31.3421 19.1473 31.3846 19.2549 31.3846H20.7451C20.8527 31.3846 20.9558 31.3421 21.0319 31.2665C21.108 31.1909 21.1507 31.0884 21.1508 30.9814V30.5682C21.5761 30.4594 21.9835 30.2907 22.3614 30.0672L22.6499 30.3561C22.6876 30.3938 22.7324 30.4238 22.7819 30.4442C22.8313 30.4647 22.8843 30.4752 22.9378 30.4752C22.9914 30.4752 23.0444 30.4647 23.0938 30.4442C23.1432 30.4238 23.1881 30.3938 23.2258 30.3561L24.2794 29.3011C24.3548 29.2256 24.3971 29.1235 24.3971 29.0171C24.3971 28.9107 24.3548 28.8086 24.2794 28.7331L23.9877 28.441C24.2122 28.0614 24.3814 27.6519 24.4905 27.2246H24.8996C25.0072 27.2246 25.1104 27.1821 25.1865 27.1065C25.2625 27.0309 25.3053 26.9284 25.3053 26.8214V25.3293C25.3053 25.2224 25.2625 25.1199 25.1865 25.0443C25.1104 24.9687 25.0072 24.9262 24.8996 24.9262H24.493C24.3837 24.4983 24.2139 24.0886 23.9887 23.7086L24.2794 23.4177C24.3548 23.3422 24.3971 23.2401 24.3971 23.1337C24.3971 23.0273 24.3548 22.9252 24.2794 22.8497L23.2258 21.7947C23.1881 21.757 23.1432 21.727 23.0938 21.7065C23.0444 21.6861 22.9914 21.6756 22.9378 21.6756C22.8843 21.6756 22.8313 21.6861 22.7819 21.7065C22.7324 21.727 22.6876 21.757 22.6499 21.7947L22.3625 22.0824C21.9844 21.8583 21.5766 21.6892 21.1508 21.58V21.1693C21.1508 21.0624 21.108 20.9599 21.0319 20.8843C20.9558 20.8086 20.8527 20.7662 20.7451 20.7661H19.2549ZM19.6607 21.5725H20.3394V21.9026C20.3394 21.9971 20.3728 22.0886 20.4338 22.1611C20.4948 22.2337 20.5795 22.2826 20.6731 22.2994C21.2168 22.3967 21.7331 22.611 22.1866 22.9275C22.2649 22.9821 22.3602 23.0075 22.4556 22.9991C22.5509 22.9907 22.6402 22.9491 22.7077 22.8816L22.9378 22.6511L23.4198 23.1337L23.1853 23.3686C23.1186 23.4354 23.0775 23.5233 23.0692 23.617C23.0608 23.7108 23.0857 23.8045 23.1396 23.8819C23.4559 24.3364 23.6703 24.8543 23.7679 25.3999C23.7846 25.4932 23.8337 25.5776 23.9067 25.6384C23.9798 25.6992 24.072 25.7326 24.1673 25.7326H24.4939V26.4183H24.1646C24.0692 26.4183 23.9769 26.4517 23.9039 26.5125C23.8308 26.5734 23.7817 26.6579 23.7651 26.7512C23.6679 27.2965 23.4541 27.814 23.1385 28.2684C23.0847 28.3458 23.0599 28.4395 23.0683 28.5332C23.0767 28.6269 23.1178 28.7147 23.1845 28.7815L23.4199 29.0172L22.9379 29.4997L22.7068 29.2684C22.6394 29.2009 22.5502 29.1593 22.4549 29.1508C22.3596 29.1424 22.2644 29.1677 22.186 29.2222C21.7326 29.538 21.2166 29.7516 20.6733 29.8486C20.5797 29.8654 20.4949 29.9143 20.4339 29.9868C20.3729 30.0594 20.3394 30.1509 20.3394 30.2455V30.5783H19.6608V30.2455C19.6608 30.1509 19.6273 30.0594 19.5663 29.9868C19.5052 29.9143 19.4205 29.8654 19.3268 29.8486C18.7835 29.7516 18.2675 29.538 17.8141 29.2222C17.7358 29.1677 17.6405 29.1424 17.5452 29.1508C17.4499 29.1593 17.3607 29.2009 17.2933 29.2684L17.0623 29.4997L16.5803 29.0172L16.8157 28.7815C16.8824 28.7147 16.9234 28.6269 16.9318 28.5332C16.9402 28.4395 16.9153 28.3458 16.8616 28.2684C16.5459 27.814 16.3321 27.2965 16.2349 26.7512C16.2183 26.6579 16.1692 26.5734 16.0961 26.5125C16.0231 26.4517 15.9308 26.4183 15.8355 26.4183H15.5062V25.7326H15.8355C15.9308 25.7326 16.0231 25.6992 16.0961 25.6384C16.1692 25.5775 16.2183 25.493 16.2349 25.3997C16.3322 24.8545 16.5459 24.3368 16.8616 23.8825C16.9153 23.8051 16.9402 23.7114 16.9318 23.6177C16.9234 23.5241 16.8824 23.4362 16.8157 23.3695L16.5803 23.1337L17.0622 22.6512L17.2933 22.8825C17.3607 22.95 17.4499 22.9917 17.5452 23.0001C17.6405 23.0086 17.7358 22.9833 17.8141 22.9287C18.2675 22.613 18.7835 22.3993 19.3268 22.3023C19.4205 22.2855 19.5052 22.2366 19.5663 22.1641C19.6273 22.0916 19.6607 22 19.6608 21.9055L19.6607 21.5725ZM20 23.7976C18.7451 23.7976 17.7222 24.8238 17.7222 26.0754C17.7222 27.3269 18.7451 28.3531 20 28.3531C21.2549 28.3531 22.2778 27.3269 22.2778 26.0754C22.2778 24.8238 21.2549 23.7976 20 23.7976ZM20 24.604C20.813 24.604 21.4664 25.2563 21.4664 26.0754C21.4664 26.8944 20.813 27.5468 20 27.5468C19.187 27.5468 18.5336 26.8944 18.5336 26.0754C18.5336 25.2563 19.187 24.604 20 24.604Z" fill="white" stroke="white" stroke-width="0.37"/>
</svg>
