<svg width="40" height="40" viewBox="0 0 40 40" fill="none" xmlns="http://www.w3.org/2000/svg">
<path d="M21.2975 26.75C21.1656 26.9773 20.9764 27.166 20.7487 27.2971C20.521 27.4283 20.2628 27.4973 20 27.4973C19.7372 27.4973 19.479 27.4283 19.2513 27.2971C19.0236 27.166 18.8344 26.9773 18.7025 26.75M24.5 17C24.5 15.8065 24.0259 14.6619 23.182 13.818C22.3381 12.9741 21.1935 12.5 20 12.5C18.8065 12.5 17.6619 12.9741 16.818 13.818C15.9741 14.6619 15.5 15.8065 15.5 17C15.5 22.25 13.25 23.75 13.25 23.75H26.75C26.75 23.75 24.5 22.25 24.5 17Z" stroke="white" stroke-width="1.67" stroke-linecap="round" stroke-linejoin="round"/>
<path d="M27.5 11.375C27.5 12.8247 26.3247 14 24.875 14C23.4253 14 22.25 12.8247 22.25 11.375C22.25 9.92525 23.4253 8.75 24.875 8.75C26.3247 8.75 27.5 9.92525 27.5 11.375Z" fill="#FF5B5B"/>
<path fill-rule="evenodd" clip-rule="evenodd" d="M24.875 9.125C23.6324 9.125 22.625 10.1324 22.625 11.375C22.625 12.6176 23.6324 13.625 24.875 13.625C26.1176 13.625 27.125 12.6176 27.125 11.375C27.125 10.1324 26.1176 9.125 24.875 9.125ZM21.875 11.375C21.875 9.71815 23.2181 8.375 24.875 8.375C26.5319 8.375 27.875 9.71815 27.875 11.375C27.875 13.0319 26.5319 14.375 24.875 14.375C23.2181 14.375 21.875 13.0319 21.875 11.375Z" fill="#274C5B"/>
</svg>
