<svg width="18" height="18" viewBox="0 0 18 18" fill="none" xmlns="http://www.w3.org/2000/svg">
<path fill-rule="evenodd" clip-rule="evenodd" d="M9 1.65438C8.82528 1.65438 8.65772 1.72378 8.53417 1.84733C8.41063 1.97087 8.34122 2.13844 8.34122 2.31315V2.44276C8.33963 2.84316 8.22098 3.23436 7.99989 3.56819C7.77881 3.90203 7.46494 4.16393 7.09691 4.32167C7.0297 4.35047 6.95913 4.37017 6.88706 4.38038C6.55495 4.49512 6.19794 4.52301 5.85033 4.45999C5.44669 4.3868 5.07422 4.19437 4.78096 3.90751L4.77444 3.90113L4.7299 3.85651C4.66871 3.79526 4.59573 3.74634 4.51576 3.71319C4.43578 3.68004 4.35006 3.66298 4.26348 3.66298C4.17691 3.66298 4.09119 3.68004 4.01121 3.71319C3.93124 3.74634 3.85858 3.79494 3.7974 3.85619C3.73615 3.91737 3.68691 3.99068 3.65375 4.07065C3.6206 4.15062 3.60354 4.23635 3.60354 4.32292C3.60354 4.4095 3.6206 4.49522 3.65375 4.5752C3.68691 4.65517 3.7355 4.72783 3.79675 4.78901L3.8481 4.84036C4.13496 5.13362 4.32736 5.50613 4.40055 5.90977C4.47218 6.30484 4.42637 6.71205 4.26909 7.08106C4.12523 7.45737 3.87374 7.78323 3.54575 8.01782C3.21066 8.25749 2.81122 8.3908 2.39937 8.40044L2.38002 8.40066H2.31315C2.13844 8.40066 1.97087 8.47007 1.84733 8.59361C1.72378 8.71716 1.65438 8.88472 1.65438 9.0594C1.65438 9.2342 1.72378 9.4017 1.84733 9.5253C1.97087 9.6488 2.13843 9.7182 2.31315 9.7182H2.44276C2.84316 9.7198 3.23436 9.8385 3.56819 10.0595C3.9008 10.2798 4.162 10.5922 4.31992 10.9585C4.48412 11.3327 4.53291 11.7475 4.45999 12.1497C4.3868 12.5533 4.19437 12.9258 3.90751 13.219L3.90113 13.2256L3.85651 13.2701C3.79526 13.3313 3.74635 13.4043 3.71319 13.4842C3.68004 13.5642 3.66298 13.6499 3.66298 13.7365C3.66298 13.8231 3.68004 13.9088 3.71319 13.9888C3.74635 14.0688 3.79494 14.1414 3.85619 14.2026C3.91737 14.2639 3.99067 14.3131 4.07065 14.3462C4.15063 14.3794 4.23635 14.3965 4.32292 14.3965C4.40949 14.3965 4.49522 14.3794 4.5752 14.3462C4.65517 14.3131 4.72783 14.2645 4.78901 14.2033L4.84036 14.1519C5.13362 13.865 5.50613 13.6726 5.90977 13.5995C6.30484 13.5278 6.71204 13.5736 7.08105 13.7309C7.45736 13.8748 7.78323 14.1263 8.01782 14.4543C8.25749 14.7893 8.3908 15.1888 8.40044 15.6006L8.40066 15.62V15.6868C8.40066 15.8616 8.47007 16.0291 8.59361 16.1527C8.71716 16.2762 8.88472 16.3456 9.0594 16.3456C9.2342 16.3456 9.4017 16.2762 9.5253 16.1527C9.6488 16.0291 9.7182 15.8616 9.7182 15.6868V15.5605V15.5572C9.7198 15.1568 9.8385 14.7656 10.0595 14.4318C10.2798 14.0992 10.5922 13.838 10.9585 13.6801C11.3327 13.5159 11.7475 13.4671 12.1497 13.54C12.5533 13.6132 12.9258 13.8056 13.219 14.0925L13.2256 14.0989L13.2701 14.1435C13.3313 14.2047 13.4043 14.2537 13.4842 14.2868C13.5642 14.32 13.6499 14.337 13.7365 14.337C13.8231 14.337 13.9088 14.32 13.9888 14.2868C14.0688 14.2537 14.1414 14.2051 14.2026 14.1438C14.2639 14.0826 14.3131 14.0093 14.3462 13.9294C14.3794 13.8494 14.3965 13.7636 14.3965 13.6771C14.3965 13.5905 14.3794 13.5048 14.3462 13.4248C14.3131 13.3448 14.2645 13.2722 14.2033 13.211L14.1519 13.1596C13.865 12.8664 13.6726 12.4939 13.5995 12.0902C13.5265 11.688 13.5753 11.2733 13.7395 10.899C13.8974 10.5328 14.1586 10.2204 14.4912 10.0001C14.8251 9.779 15.2163 9.6604 15.6167 9.6588H15.62H15.6868C15.8616 9.6588 16.0291 9.5894 16.1527 9.4658C16.2762 9.3423 16.3456 9.1747 16.3456 9C16.3456 8.82528 16.2762 8.65772 16.1527 8.53417C16.0291 8.41063 15.8616 8.34122 15.6868 8.34122H15.5605H15.5572C15.1568 8.33962 14.7656 8.22098 14.4318 7.99989C14.098 7.77881 13.8361 7.46494 13.6783 7.09691C13.6495 7.0297 13.6298 6.95913 13.6196 6.88706C13.5049 6.55495 13.477 6.19794 13.54 5.85033C13.6132 5.44669 13.8056 5.07422 14.0925 4.78096L14.0989 4.77444L14.1435 4.7299C14.2047 4.66871 14.2537 4.59573 14.2868 4.51576C14.32 4.43578 14.337 4.35006 14.337 4.26348C14.337 4.17691 14.32 4.09119 14.2868 4.01121C14.2537 3.93124 14.2051 3.85858 14.1438 3.7974C14.0826 3.73615 14.0093 3.68691 13.9294 3.65375C13.8494 3.6206 13.7637 3.60354 13.6771 3.60354C13.5905 3.60354 13.5048 3.6206 13.4248 3.65375C13.3448 3.68691 13.2722 3.7355 13.211 3.79675L13.1596 3.8481C12.8664 4.13496 12.4939 4.32736 12.0902 4.40055C11.688 4.47347 11.2733 4.42468 10.899 4.26048C10.5328 4.10257 10.2204 3.84136 10.0001 3.50876C9.779 3.17492 9.6604 2.78372 9.6588 2.38332V2.38002V2.31315C9.6588 2.13844 9.5894 1.97087 9.4658 1.84733C9.3423 1.72378 9.1747 1.65438 9 1.65438ZM7.36435 0.67751C7.79815 0.24371 8.38651 0 9 0C9.6135 0 10.2018 0.24371 10.6356 0.67751C11.0694 1.11131 11.3132 1.69967 11.3132 2.31315V2.37793C11.3137 2.45527 11.3367 2.53079 11.3794 2.59529C11.4224 2.66013 11.4833 2.71099 11.5548 2.74163L11.563 2.74512C11.6358 2.77729 11.7167 2.78693 11.7951 2.77271C11.8724 2.7587 11.9438 2.72216 12.0004 2.66772L12.0405 2.62758C12.2553 2.41266 12.5106 2.24184 12.7913 2.12549C13.0721 2.00908 13.3731 1.94916 13.6771 1.94916C13.9811 1.94916 14.2821 2.00908 14.5629 2.12549C14.8434 2.24178 15.0983 2.41217 15.313 2.62693C15.5281 2.84176 15.6987 3.09687 15.8151 3.37768C15.9315 3.6585 15.9914 3.9595 15.9914 4.26348C15.9914 4.56747 15.9315 4.86847 15.8151 5.14928C15.6987 5.4301 15.5281 5.68521 15.313 5.90004L15.2728 5.94018C15.2184 5.99676 15.1819 6.06818 15.1679 6.14549C15.1536 6.22389 15.1632 6.30474 15.1954 6.37762C15.2164 6.42511 15.2327 6.47433 15.2444 6.52463C15.272 6.56208 15.3061 6.59462 15.3453 6.62057C15.4098 6.66328 15.4853 6.68631 15.5626 6.68685H15.6868C16.3003 6.68685 16.8887 6.93055 17.3225 7.36435C17.7563 7.79815 18 8.38651 18 9C18 9.6135 17.7563 10.2018 17.3225 10.6356C16.8887 11.0694 16.3003 11.3132 15.6868 11.3132H15.6221C15.5447 11.3137 15.4692 11.3367 15.4047 11.3794C15.3399 11.4224 15.289 11.4833 15.2584 11.5548L15.2549 11.563C15.2227 11.6358 15.2131 11.7167 15.2273 11.7951C15.2413 11.8724 15.2778 11.9438 15.3323 12.0004L15.3724 12.0405C15.5873 12.2553 15.7582 12.5106 15.8745 12.7913C15.9909 13.0721 16.0508 13.3731 16.0508 13.6771C16.0508 13.9811 15.9909 14.2821 15.8745 14.5629C15.7582 14.8435 15.5877 15.0985 15.3727 15.3133C15.158 15.5282 14.903 15.6987 14.6223 15.8151C14.3415 15.9315 14.0405 15.9914 13.7365 15.9914C13.4325 15.9914 13.1315 15.9315 12.8507 15.8151C12.5699 15.6987 12.3148 15.5281 12.1 15.313L12.0598 15.2728C12.0032 15.2184 11.9318 15.1819 11.8545 15.1679C11.7761 15.1536 11.6953 15.1632 11.6224 15.1954L11.6143 15.199C11.5428 15.2296 11.4818 15.2804 11.4389 15.3453C11.3962 15.4098 11.3731 15.4853 11.3726 15.5626V15.6868C11.3726 16.3003 11.1289 16.8887 10.6951 17.3225C10.2613 17.7563 9.6729 18 9.0594 18C8.44595 18 7.85759 17.7563 7.42379 17.3225C6.98999 16.8887 6.74629 16.3003 6.74629 15.6868V15.6323C6.74311 15.5548 6.71739 15.4799 6.6722 15.4167C6.62566 15.3516 6.56061 15.302 6.48552 15.2744C6.46917 15.2684 6.45301 15.2619 6.43706 15.2548C6.36418 15.2227 6.28332 15.2131 6.20493 15.2273C6.12762 15.2413 6.0562 15.2778 5.99962 15.3323L5.95948 15.3724C5.74465 15.5875 5.48953 15.7581 5.20872 15.8745C4.92791 15.9909 4.62691 16.0508 4.32292 16.0508C4.01893 16.0508 3.71793 15.9909 3.43712 15.8745C3.15631 15.7581 2.9012 15.5875 2.68637 15.3724C2.4716 15.1577 2.30121 14.9028 2.18492 14.6223C2.06852 14.3415 2.0086 14.0405 2.0086 13.7365C2.0086 13.4325 2.06852 13.1315 2.18492 12.8507C2.30127 12.57 2.47177 12.3151 2.68669 12.1003L2.72715 12.0598C2.78159 12.0032 2.81813 11.9318 2.83215 11.8545C2.84637 11.7761 2.83677 11.6953 2.8046 11.6224L2.80102 11.6143C2.77039 11.5428 2.71957 11.4818 2.65473 11.4389C2.59023 11.3962 2.51471 11.3731 2.43737 11.3726H2.31315C1.69967 11.3726 1.11131 11.1289 0.67751 10.6951C0.24371 10.2613 0 9.6729 0 9.0594C0 8.44595 0.24371 7.85759 0.67751 7.42379C1.11131 6.98999 1.69967 6.74629 2.31315 6.74629H2.3677C2.4452 6.74311 2.52015 6.71739 2.58332 6.6722C2.64839 6.62566 2.69796 6.56061 2.72558 6.48552C2.7316 6.46917 2.73813 6.45301 2.74516 6.43706C2.77733 6.36417 2.78693 6.28332 2.77271 6.20493C2.7587 6.12762 2.72216 6.0562 2.66772 5.99962L2.62758 5.95948C2.41251 5.74465 2.24189 5.48953 2.12549 5.20872C2.00908 4.92791 1.94916 4.62691 1.94916 4.32292C1.94916 4.01894 2.00908 3.71794 2.12549 3.43712C2.24184 3.15645 2.41234 2.90145 2.62725 2.68669C2.84202 2.47178 3.09701 2.30127 3.37768 2.18492C3.6585 2.06852 3.9595 2.0086 4.26348 2.0086C4.56747 2.0086 4.86847 2.06852 5.14928 2.18492C5.42995 2.30127 5.68495 2.47178 5.89971 2.68669L5.94019 2.72717C5.99677 2.7816 6.06819 2.81814 6.14549 2.83215C6.22388 2.84637 6.30474 2.83677 6.37762 2.8046C6.42511 2.78364 6.47434 2.76726 6.52464 2.75559C6.56209 2.72799 6.59462 2.69391 6.62057 2.65473C6.66328 2.59023 6.68631 2.51471 6.68685 2.43736V2.31315C6.68685 1.69967 6.93055 1.11131 7.36435 0.67751ZM9 7.59824C8.22583 7.59824 7.59824 8.22583 7.59824 9C7.59824 9.7742 8.22583 10.4018 9 10.4018C9.7742 10.4018 10.4018 9.7742 10.4018 9C10.4018 8.22583 9.7742 7.59824 9 7.59824ZM5.94386 9C5.94386 7.31214 7.31214 5.94386 9 5.94386C10.6879 5.94386 12.0561 7.31214 12.0561 9C12.0561 10.6879 10.6879 12.0561 9 12.0561C7.31214 12.0561 5.94386 10.6879 5.94386 9Z" fill="#3F5974"/>
</svg>
