<svg width="16" height="19" viewBox="0 0 16 19" fill="none" xmlns="http://www.w3.org/2000/svg">
<path d="M14.6666 10.1667H14.5825C14.2861 11.3165 13.2411 12.1667 12 12.1667C10.7582 12.1667 9.71381 11.3159 9.41751 10.1667H1.33332C0.965126 10.1667 0.666656 9.8682 0.666656 9.5C0.666656 9.13181 0.965126 8.83333 1.33332 8.83333H9.41751C9.71391 7.68354 10.7588 6.83333 12 6.83333C13.2418 6.83333 14.2861 7.68405 14.5825 8.83333H14.6666C15.0348 8.83333 15.3333 9.13181 15.3333 9.5C15.3333 9.8682 15.0348 10.1667 14.6666 10.1667ZM12 8.16667C11.265 8.16667 10.6666 8.76451 10.6666 9.5C10.6666 10.235 11.2645 10.8333 12 10.8333C12.735 10.8333 13.3333 10.2355 13.3333 9.5C13.3333 8.76498 12.7355 8.16667 12 8.16667ZM6.58249 3.83333C6.28606 4.98312 5.24113 5.83333 3.99999 5.83333C2.75818 5.83333 1.71386 4.98262 1.41751 3.83333H1.33332C0.965126 3.83333 0.666656 3.53486 0.666656 3.16667C0.666656 2.79848 0.965126 2.5 1.33332 2.5H1.41749C1.71392 1.35021 2.75885 0.5 3.99999 0.5C5.2418 0.5 6.28612 1.35072 6.58247 2.5H14.6666C15.0348 2.5 15.3333 2.79848 15.3333 3.16667C15.3333 3.53486 15.0348 3.83333 14.6666 3.83333H6.58249ZM3.99999 1.83333C3.26497 1.83333 2.66666 2.43118 2.66666 3.16667C2.66666 3.90169 3.2645 4.5 3.99999 4.5C4.73501 4.5 5.33332 3.90215 5.33332 3.16667C5.33332 2.43164 4.73548 1.83333 3.99999 1.83333ZM9.58251 16.5C9.28611 17.6498 8.24111 18.5 6.99999 18.5C5.75818 18.5 4.71386 17.6493 4.41751 16.5H1.33332C0.965126 16.5 0.666656 16.2015 0.666656 15.8333C0.666656 15.4651 0.965126 15.1667 1.33332 15.1667H4.41749C4.71391 14.0169 5.75885 13.1667 6.99999 13.1667C8.24181 13.1667 9.28611 14.0174 9.58251 15.1667H14.6666C15.0348 15.1667 15.3333 15.4651 15.3333 15.8333C15.3333 16.2015 15.0348 16.5 14.6666 16.5H9.58251ZM6.99999 14.5C6.26497 14.5 5.66666 15.0978 5.66666 15.8333C5.66666 16.5684 6.2645 17.1667 6.99999 17.1667C7.73501 17.1667 8.33331 16.5688 8.33331 15.8333C8.33331 15.0983 7.73548 14.5 6.99999 14.5Z" fill="#3F5974"/>
</svg>
