<svg width="18" height="18" viewBox="0 0 18 18" fill="none" xmlns="http://www.w3.org/2000/svg">
<path fill-rule="evenodd" clip-rule="evenodd" d="M0 2.26365C0 1.02676 0.99106 0 2.24072 0H15.7575C17.0078 0 17.9972 1.02749 17.9972 2.26365V3.11446C17.9972 3.91222 17.694 4.68082 17.1501 5.26058L12.7362 9.954C12.0435 10.6681 11.6528 11.6349 11.6528 12.6448V14.7235C11.6528 15.4544 11.2571 16.1339 10.6119 16.4863L8.10196 17.854C7.29548 18.292 6.36179 17.686 6.36179 16.8112V12.6556C6.36179 11.6641 5.98391 10.7142 5.31354 10.0026C5.29258 9.9844 5.27246 9.9651 5.25326 9.9447L0.84873 5.26131C0.30327 4.68129 0 3.91231 0 3.11446V2.26365ZM6.39322 8.76867C6.40802 8.78177 6.4224 8.79546 6.43632 8.80971C7.43686 9.834 7.9979 11.2163 7.9979 12.6556V16.0475L9.8277 15.0504C9.9398 14.9892 10.0167 14.8651 10.0167 14.7235V12.6448C10.0167 11.2167 10.5678 9.8419 11.5572 8.81944L15.9569 4.14117C15.957 4.14109 15.9568 4.14125 15.9569 4.14117C16.2147 3.8662 16.3611 3.49827 16.3611 3.11446V2.26365C16.3611 1.90453 16.0779 1.63611 15.7575 1.63611H2.24072C1.91955 1.63611 1.63611 1.90526 1.63611 2.26365V3.11446C1.63611 3.49829 1.78222 3.86571 2.04057 4.14044C2.04058 4.14044 2.04057 4.14043 2.04057 4.14044L6.39322 8.76867Z" fill="#3F5974"/>
</svg>
