<svg width="40" height="40" viewBox="0 0 40 40" fill="none" xmlns="http://www.w3.org/2000/svg">
<path d="M22.1312 25.1372H21.2545C20.7022 25.1372 20.2545 24.6895 20.2545 24.1372V20.5706C20.2545 20.0183 20.7022 19.5706 21.2545 19.5706H27.8111C28.3634 19.5706 28.8111 20.0183 28.8111 20.5706V22.4513C28.8111 23.0036 28.3634 23.4513 27.8111 23.4513H26.9662H26.9344C26.8114 23.4513 26.7117 23.551 26.7117 23.674V26.0915C26.7117 26.2144 26.8114 26.3141 26.9344 26.3141H26.9662H31.165C31.288 26.3141 31.3877 26.2144 31.3877 26.0915V23.674C31.3877 23.551 31.288 23.4513 31.165 23.4513H30.2882C29.736 23.4513 29.2882 23.0036 29.2882 22.4513V19.3479V19.3161C29.2882 19.1931 29.1886 19.0934 29.0656 19.0934H21.2545C20.7022 19.0934 20.2545 18.6457 20.2545 18.0934V17.167C20.2545 16.6147 20.7022 16.167 21.2545 16.167H25.503C25.6435 16.167 25.7574 16.0531 25.7574 15.9125V12.2227C25.7574 12.0997 25.6577 12 25.5348 12H25.503H14.497C14.374 12 14.2743 12.0997 14.2743 12.2227V15.9125V15.9443C14.2743 16.0673 14.374 16.167 14.497 16.167H18.7773C19.3296 16.167 19.7773 16.6147 19.7773 17.167V18.0934C19.7773 18.6457 19.3296 19.0934 18.7773 19.0934H10.9662C10.8432 19.0934 10.7435 19.1931 10.7435 19.3161V19.3479V22.4513C10.7435 23.0036 10.2958 23.4513 9.74352 23.4513H8.86678H8.83497C8.71199 23.4513 8.6123 23.551 8.6123 23.674V26.0915C8.6123 26.2144 8.71199 26.3141 8.83497 26.3141H8.86678H13.0656C13.1886 26.3141 13.2882 26.2144 13.2882 26.0915V23.674C13.2882 23.551 13.1886 23.4513 13.0656 23.4513H12.1888C11.6366 23.4513 11.1888 23.0036 11.1888 22.4513V20.5706C11.1888 20.0183 11.6366 19.5706 12.1888 19.5706H18.7773C19.3296 19.5706 19.7773 20.0183 19.7773 20.5706V24.1372C19.7773 24.6895 19.3296 25.1372 18.7773 25.1372H17.9006C17.7776 25.1372 17.6779 25.2369 17.6779 25.3598V25.3916V27.7773C17.6779 27.9003 17.7776 28 17.9006 28H22.1312C22.2542 28 22.3539 27.9003 22.3539 27.7773V25.3916V25.3598C22.3539 25.2369 22.2542 25.1372 22.1312 25.1372ZM14.7515 13.4453C14.7515 12.893 15.1992 12.4453 15.7515 12.4453H24.2803C24.8326 12.4453 25.2803 12.893 25.2803 13.4453V14.6899C25.2803 15.2421 24.8326 15.6899 24.2803 15.6899H15.7515C15.1992 15.6899 14.7515 15.2421 14.7515 14.6899V13.4453ZM27.1888 24.8827C27.1888 24.3557 27.6161 23.9284 28.1431 23.9284H29.988C30.5151 23.9284 30.9423 24.3557 30.9423 24.8827C30.9423 25.4097 30.5151 25.837 29.988 25.837H28.1431C27.6161 25.837 27.1888 25.4097 27.1888 24.8827ZM9.08944 24.8827C9.08944 24.3557 9.51669 23.9284 10.0437 23.9284H11.8886C12.4157 23.9284 12.8429 24.3557 12.8429 24.8827C12.8429 25.4097 12.4157 25.837 11.8886 25.837H10.0437C9.51669 25.837 9.08944 25.4097 9.08944 24.8827ZM18.155 26.5686C18.155 26.0416 18.5823 25.6143 19.1093 25.6143H20.9224C21.4495 25.6143 21.8767 26.0416 21.8767 26.5686C21.8767 27.0956 21.4495 27.5229 20.9224 27.5229H19.1093C18.5823 27.5229 18.155 27.0956 18.155 26.5686Z" fill="white" stroke="white" stroke-width="0.67"/>
</svg>
