<svg width="40" height="40" viewBox="0 0 40 40" fill="none" xmlns="http://www.w3.org/2000/svg">
<path d="M20 12C15.5811 12 12 15.5811 12 20C12 24.4189 15.5811 28 20 28C24.4189 28 28 24.4189 28 20C28 15.5811 24.4189 12 20 12ZM20 26.4C16.4724 26.4 13.6 23.5276 13.6 20C13.6 16.4724 16.4724 13.6 20 13.6C23.5276 13.6 26.4 16.4724 26.4 20C26.4 23.5276 23.5276 26.4 20 26.4Z" fill="white"/>
<path d="M19.9276 15.2C18.822 15.2 17.8394 15.8646 17.4299 16.8914C17.3071 17.2 17.4583 17.5528 17.7669 17.6756C18.0756 17.7984 18.4283 17.6473 18.5512 17.3386C18.778 16.7717 19.3165 16.4063 19.9276 16.4063C20.7433 16.4063 21.4079 17.0709 21.4079 17.8866C21.4079 18.6898 20.8189 19.0457 20.715 19.1244C19.9433 19.7071 19.0709 20.3685 19.0709 22.2425C19.0709 22.5764 19.3417 22.8473 19.6756 22.8473C20.0094 22.8473 20.2803 22.5764 20.2803 22.2425C20.2803 20.9701 20.7433 20.6205 21.4457 20.0882C21.5559 20.0032 22.6173 19.2788 22.6173 17.8866C22.6142 16.4063 21.4079 15.2 19.9276 15.2Z" fill="white"/>
<path d="M19.6851 23.2189C19.2473 23.2189 18.8945 23.5717 18.8945 24.0095C18.8945 24.4472 19.2473 24.8 19.6851 24.8C20.1229 24.8 20.4756 24.4472 20.4756 24.0095C20.4756 23.5717 20.1197 23.2189 19.6851 23.2189Z" fill="white"/>
</svg>
