<svg width="13" height="18" viewBox="0 0 13 18" fill="none" xmlns="http://www.w3.org/2000/svg">
<path fill-rule="evenodd" clip-rule="evenodd" d="M11.5714 5.78571H12.2143C12.5694 5.78571 12.8571 6.0735 12.8571 6.42857V11.5714C12.8571 15.1161 9.97328 18 6.42857 18C2.88386 18 0 15.1161 0 11.5714V6.42857C0 6.0735 0.287786 5.78571 0.642857 5.78571H1.28571V5.14286C1.28571 2.30721 3.59271 0 6.42857 0C9.26443 0 11.5714 2.30721 11.5714 5.14286V5.78571ZM6.42857 1.28571C4.30179 1.28571 2.57143 3.01607 2.57143 5.14286V5.78571H10.2857V5.14286C10.2857 3.01607 8.55536 1.28571 6.42857 1.28571ZM6.42857 16.7143C9.26443 16.7143 11.5714 14.4071 11.5714 11.5714V7.07143H1.28571V11.5714C1.28571 14.4071 3.59271 16.7143 6.42857 16.7143ZM4.5 10.2857C4.5 9.2205 5.36336 8.35714 6.42857 8.35714C7.49379 8.35714 8.35714 9.2205 8.35714 10.2857C8.35714 11.0424 7.92 11.6942 7.28572 12.0099V14.1429H7.07164H5.78593H5.57143V12.0099C4.93714 11.6944 4.5 11.0424 4.5 10.2857Z" fill="#3F5974"/>
</svg>
