<svg width="4" height="17" viewBox="0 0 4 17" fill="none" xmlns="http://www.w3.org/2000/svg">
<path d="M2 4.5C3.10457 4.5 4 3.60457 4 2.5C4 1.39543 3.10457 0.5 2 0.5C0.89543 0.5 0 1.39543 0 2.5C0 3.60457 0.89543 4.5 2 4.5Z" fill="#3F5974"/>
<path d="M2 4.5C3.10457 4.5 4 3.60457 4 2.5C4 1.39543 3.10457 0.5 2 0.5C0.89543 0.5 0 1.39543 0 2.5C0 3.60457 0.89543 4.5 2 4.5Z" fill="#3F5974"/>
<path d="M2 10.5C3.10457 10.5 4 9.60457 4 8.5C4 7.39543 3.10457 6.5 2 6.5C0.89543 6.5 0 7.39543 0 8.5C0 9.60457 0.89543 10.5 2 10.5Z" fill="#3F5974"/>
<path d="M2 10.5C3.10457 10.5 4 9.60457 4 8.5C4 7.39543 3.10457 6.5 2 6.5C0.89543 6.5 0 7.39543 0 8.5C0 9.60457 0.89543 10.5 2 10.5Z" fill="#3F5974"/>
<path d="M2 16.5C3.10457 16.5 4 15.6046 4 14.5C4 13.3954 3.10457 12.5 2 12.5C0.89543 12.5 0 13.3954 0 14.5C0 15.6046 0.89543 16.5 2 16.5Z" fill="#3F5974"/>
<path d="M2 16.5C3.10457 16.5 4 15.6046 4 14.5C4 13.3954 3.10457 12.5 2 12.5C0.89543 12.5 0 13.3954 0 14.5C0 15.6046 0.89543 16.5 2 16.5Z" fill="#3F5974"/>
</svg>
