<svg width="16" height="18" viewBox="0 0 16 18" fill="none" xmlns="http://www.w3.org/2000/svg">
<path d="M9.2384 1.14592L9.36412 1.04146C9.60964 0.837809 9.64755 0.469166 9.44888 0.217677C9.25059 -0.0340079 8.89116 -0.0732543 8.64525 0.130397L7.44047 1.12933C7.33419 1.21739 7.2698 1.33708 7.24333 1.46438C7.2418 1.47161 7.24028 1.47864 7.23914 1.48586C7.23457 1.51242 7.23228 1.53878 7.23133 1.56533C7.23076 1.5747 7.22847 1.58369 7.22847 1.59306C7.22847 1.60067 7.23057 1.6079 7.23076 1.61571C7.2319 1.63113 7.23361 1.64636 7.23533 1.66179C7.23895 1.6899 7.24314 1.71704 7.24999 1.74379C7.25095 1.74633 7.25171 1.74848 7.25228 1.75121C7.28009 1.85216 7.33171 1.94237 7.40295 2.01325L8.33001 3.1883C8.44315 3.33142 8.6083 3.40581 8.77497 3.40581C8.90106 3.40581 9.02792 3.36305 9.13364 3.27538C9.37916 3.07212 9.41707 2.70328 9.21878 2.4516L9.10868 2.31218C12.1548 2.937 14.4573 5.69967 14.4573 9.0034C14.4573 11.8229 12.7293 14.3887 10.1578 15.3871C9.86279 15.5019 9.71441 15.8401 9.82641 16.1427C9.91269 16.377 10.13 16.5211 10.3607 16.5211C10.4281 16.5211 10.4965 16.5088 10.5632 16.4827C13.5754 15.3127 15.6 12.3073 15.6 9.0036C15.6 5.09848 12.8541 1.84006 9.2384 1.14592ZM8.36334 16.3311C8.36067 16.3108 8.35782 16.2909 8.35286 16.2714C8.34886 16.2566 8.34429 16.2423 8.33953 16.2275C8.33172 16.204 8.32315 16.1812 8.31305 16.1591C8.30829 16.1488 8.3022 16.139 8.29705 16.1291C8.28296 16.1039 8.2681 16.08 8.25096 16.0572C8.24829 16.0539 8.24696 16.0502 8.24467 16.0469L7.27018 14.8121C7.07152 14.5604 6.71227 14.5209 6.46637 14.7246C6.22103 14.928 6.18293 15.2969 6.38122 15.5486L6.49684 15.695C3.44804 15.0725 1.14287 12.3091 1.14287 9.0034C1.14287 6.1638 2.8867 3.59189 5.48216 2.6039C5.77836 2.49104 5.92903 2.15383 5.81931 1.8508C5.70959 1.54776 5.37988 1.39292 5.08482 1.50558C2.04326 2.66345 0 5.67663 0 9.0034C0 12.9062 2.7427 16.163 6.35589 16.8593L6.23627 16.9587C5.99112 17.1624 5.95284 17.531 6.1515 17.7827C6.26446 17.9256 6.42941 18 6.59608 18C6.72237 18 6.84904 17.9574 6.95513 17.8696L8.1601 16.8708C8.17229 16.8605 8.18162 16.8484 8.19286 16.8373C8.19991 16.8304 8.20696 16.8236 8.21324 16.8167C8.23267 16.7962 8.24924 16.775 8.26486 16.7527C8.27077 16.7439 8.27648 16.7349 8.28239 16.726C8.2961 16.7039 8.30772 16.6812 8.31839 16.6578C8.32353 16.6455 8.32848 16.6336 8.33286 16.6211C8.34106 16.5992 8.34772 16.5764 8.35325 16.5533C8.35725 16.5385 8.35991 16.5237 8.3622 16.5081C8.3662 16.486 8.36772 16.4635 8.36887 16.4413C8.36963 16.4315 8.37191 16.4229 8.37191 16.4128C8.37191 16.405 8.36963 16.3977 8.36963 16.3897C8.36848 16.3704 8.36639 16.3509 8.36334 16.3311Z" fill="#3F5974"/>
</svg>
