<svg width="18" height="20" viewBox="0 0 18 20" fill="none" xmlns="http://www.w3.org/2000/svg">
<path d="M12.8719 1H5.329C2.593 1 1 2.602 1 5.347V14.644C1 17.434 2.593 19 5.329 19H12.8719C15.652 19 17.2 17.434 17.2 14.644V5.347C17.2 2.602 15.652 1 12.8719 1" stroke="#3F5974" stroke-width="1.5"/>
<path fill-rule="evenodd" clip-rule="evenodd" d="M5.572 5.185V5.194C5.1841 5.194 4.87 5.509 4.87 5.896C4.87 6.283 5.1841 6.598 5.572 6.598H8.2621C8.65 6.598 8.965 6.283 8.965 5.8861C8.965 5.5 8.65 5.185 8.2621 5.185H5.572ZM12.628 10.666H5.572C5.1841 10.666 4.87 10.351 4.87 9.964C4.87 9.577 5.1841 9.2611 5.572 9.2611H12.628C13.015 9.2611 13.33 9.577 13.33 9.964C13.33 10.351 13.015 10.666 12.628 10.666ZM12.628 14.779H5.572C5.302 14.815 5.041 14.68 4.897 14.455C4.753 14.221 4.753 13.924 4.897 13.699C5.041 13.465 5.302 13.339 5.572 13.366H12.628C12.9871 13.402 13.258 13.708 13.258 14.077C13.258 14.4361 12.9871 14.743 12.628 14.779Z" fill="#3F5974"/>
</svg>
