<svg width="17" height="17" viewBox="0 0 17 17" fill="none" xmlns="http://www.w3.org/2000/svg">
<path d="M4.95852 11.5995L2.39666 11.5995C2.14336 11.5995 1.93802 11.4018 1.93802 11.1579C1.93802 10.914 2.14336 10.7162 2.39666 10.7162L6.06578 10.7162C6.31907 10.7162 6.52441 10.914 6.52441 11.1579L6.52441 14.691C6.52441 14.935 6.31907 15.1327 6.06577 15.1327C5.81248 15.1327 5.60714 14.935 5.60714 14.691L5.60714 12.2241L1.80369 15.8866C1.62458 16.0591 1.33419 16.0591 1.15508 15.8866C0.975966 15.7142 0.975967 15.4345 1.15508 15.2621L4.95852 11.5995Z" fill="#3F5974" stroke="#3F5974" stroke-width="0.67"/>
<path d="M12.6765 5.41645L15.2383 5.41645C15.4916 5.41645 15.697 5.61418 15.697 5.8581C15.697 6.10201 15.4916 6.29974 15.2383 6.29974L11.5692 6.29974C11.3159 6.29974 11.1106 6.10201 11.1106 5.8581L11.1106 2.32492C11.1106 2.081 11.3159 1.88327 11.5692 1.88327C11.8225 1.88327 12.0279 2.081 12.0279 2.32492L12.0279 4.79187L15.8313 1.12933C16.0104 0.956857 16.3008 0.956857 16.4799 1.12933C16.659 1.30181 16.659 1.58144 16.4799 1.75392L12.6765 5.41645Z" fill="#3F5974" stroke="#3F5974" stroke-width="0.67"/>
</svg>
