<svg width="17" height="16" viewBox="0 0 17 16" fill="none" xmlns="http://www.w3.org/2000/svg">
<path d="M14.4937 1.38329H12.0294C11.7858 1.38329 11.5882 1.18556 11.5882 0.94165C11.5882 0.69773 11.7858 0.5 12.0294 0.5H15.5588C15.8025 0.5 16 0.69773 16 0.94165V4.47483C16 4.71874 15.8025 4.91647 15.5588 4.91647C15.3152 4.91647 15.1176 4.71874 15.1176 4.47483V2.00788L11.459 5.67041C11.2867 5.84289 11.0074 5.84289 10.8351 5.67041C10.6628 5.49794 10.6628 5.2183 10.8351 5.04583L14.4937 1.38329ZM2.50627 14.6327H4.97059C5.21424 14.6327 5.41176 14.8304 5.41176 15.0744C5.41176 15.3183 5.21424 15.516 4.97059 15.516H1.44118C1.19752 15.516 1 15.3183 1 15.0744V11.5412C1 11.2973 1.19752 11.0995 1.44118 11.0995C1.68483 11.0995 1.88235 11.2973 1.88235 11.5412V14.0081L5.54098 10.3456C5.71327 10.1731 5.99261 10.1731 6.1649 10.3456C6.33719 10.5181 6.33719 10.7977 6.1649 10.9702L2.50627 14.6327Z" fill="#3F5974" stroke="#3F5974" stroke-width="0.67"/>
</svg>
