<svg width="17" height="18" viewBox="0 0 17 18" fill="none" xmlns="http://www.w3.org/2000/svg">
<path fill-rule="evenodd" clip-rule="evenodd" d="M13.3618 17.5C12.941 17.4996 12.5264 17.3978 12.1525 17.2032C11.7787 17.0085 11.4565 16.7266 11.2128 16.381C10.9691 16.0354 10.8109 15.636 10.7516 15.2163C10.6922 14.7966 10.7333 14.3687 10.8715 13.9683L5.64854 10.9604C5.29939 11.3754 4.83216 11.6725 4.31001 11.8113C3.78786 11.9502 3.23598 11.9242 2.72896 11.7369C2.22194 11.5496 1.78424 11.2099 1.47503 10.7639C1.16582 10.3179 1 9.7869 1 9.24287C1 8.69881 1.16582 8.16788 1.47503 7.72183C1.78424 7.27579 2.22194 6.93614 2.72896 6.74882C3.23598 6.56149 3.78786 6.53551 4.31001 6.6744C4.83216 6.81328 5.29939 7.11033 5.64854 7.52538L10.8715 4.51748C10.6543 3.89191 10.677 3.20718 10.9351 2.59759C11.1931 1.98799 11.6679 1.49751 12.2664 1.22234C12.8648 0.947168 13.5437 0.907148 14.1699 1.11015C14.7961 1.31314 15.3244 1.74449 15.6513 2.31961C15.9781 2.89473 16.0799 3.57212 15.9367 4.21893C15.7935 4.86574 15.4155 5.43531 14.877 5.81593C14.3385 6.19655 13.6783 6.36076 13.0258 6.27636C12.3733 6.19196 11.7757 5.86504 11.3501 5.3597L6.12719 8.36761C6.32276 8.93448 6.32276 9.5513 6.12719 10.1181L11.3501 13.126C11.6364 12.7857 12.0032 12.5235 12.4166 12.3636C12.83 12.2036 13.2767 12.1512 13.7155 12.211C14.1544 12.2709 14.5712 12.4411 14.9275 12.706C15.2838 12.9709 15.5682 13.3219 15.7543 13.7267C15.9405 14.1315 16.0225 14.577 15.9927 15.0221C15.9629 15.4672 15.8224 15.8976 15.584 16.2736C15.3456 16.6495 15.0171 16.959 14.6287 17.1733C14.2403 17.3876 13.8046 17.5 13.3618 17.5ZM2.45415 10.4344C2.68803 10.6698 2.98596 10.8301 3.31027 10.895C3.63458 10.9599 3.97071 10.9265 4.27616 10.799C4.58162 10.6715 4.84268 10.4556 5.02636 10.1786C5.21003 9.9016 5.30806 9.576 5.30806 9.24287C5.30806 8.90976 5.21003 8.58414 5.02636 8.30716C4.84268 8.03018 4.58162 7.81427 4.27616 7.68675C3.97071 7.55922 3.63458 7.52579 3.31027 7.59069C2.98596 7.65559 2.68803 7.81591 2.45415 8.05136C2.29877 8.20779 2.1755 8.39354 2.0914 8.59798C2.0073 8.80243 1.96402 9.02156 1.96402 9.24287C1.96402 9.46417 2.0073 9.6833 2.0914 9.8878C2.1755 10.0922 2.29877 10.2779 2.45415 10.4344ZM12.1791 4.83356C12.413 5.06902 12.7109 5.22933 13.0352 5.29423C13.3595 5.35913 13.6957 5.3257 14.0011 5.19818C14.3066 5.07065 14.5676 4.85475 14.7513 4.57777C14.935 4.30078 15.033 3.97516 15.033 3.64206C15.033 3.30895 14.935 2.98333 14.7513 2.70635C14.5676 2.42936 14.3066 2.21346 14.0011 2.08594C13.6957 1.95841 13.3595 1.92498 13.0352 1.98988C12.7109 2.05478 12.413 2.2151 12.1791 2.45055C12.0237 2.60698 11.9004 2.79273 11.8163 2.99717C11.7322 3.20162 11.689 3.42075 11.689 3.64206C11.689 3.86336 11.7322 4.0825 11.8163 4.28694C11.9004 4.49138 12.0237 4.67713 12.1791 4.83356ZM12.1791 16.0349C12.413 16.2703 12.7109 16.4306 13.0352 16.4955C13.3595 16.5604 13.6957 16.527 14.0011 16.3995C14.3066 16.2719 14.5676 16.056 14.7513 15.7791C14.935 15.5021 15.033 15.1765 15.033 14.8434C15.033 14.5102 14.935 14.1846 14.7513 13.9076C14.5676 13.6307 14.3066 13.4148 14.0011 13.2872C13.6957 13.1597 13.3595 13.1263 13.0352 13.1912C12.7109 13.2561 12.413 13.4164 12.1791 13.6518C12.0237 13.8083 11.9004 13.994 11.8163 14.1985C11.7322 14.403 11.6889 14.6221 11.6889 14.8434C11.6889 15.0648 11.7322 15.2839 11.8163 15.4884C11.9004 15.6928 12.0237 15.8784 12.1791 16.0349Z" fill="#3F5974" stroke="#3F5974"/>
</svg>
