<svg width="96" height="96" viewBox="0 0 96 96" fill="none" xmlns="http://www.w3.org/2000/svg">
<g clip-path="url(#clip0_62_1938)">
<path d="M60.4 44C62.6 41.3 64 37.8 64 34C64 25.2 56.8 18 48 18C39.2 18 32 25.2 32 34C32 37.8 33.2998 41.3 35.5998 44C27.9998 46.3 22.7 53.6 22.7 61.6V67.4C22.7 69.3 24.2 70.8 26.1 70.8C28 70.8 29.5 69.3 29.5 67.4V61.6C29.5 56.5 32.7998 52 37.5998 50.6C40.3998 49.7 55.6 49.7 58.4 50.6C63.2 52 66.5 56.6 66.5 61.7V67.5C66.5 69.4 68 70.9 69.9 70.9C71.8 70.9 73.3 69.4 73.3 67.5V61.7C73.4 53.5 68 46.3 60.4 44ZM48 24.8C53 24.8 57.0998 28.9 57.0998 33.9C57.0998 38.9 53 43 48 43C43 43 38.9 38.9 38.9 33.9C38.9 28.9 43 24.8 48 24.8Z" fill="white"/>
<path d="M48 0.5C21.8 0.5 0.5 21.8 0.5 48C0.5 74.2 21.8 95.5 48 95.5C74.2 95.5 95.5 74.2 95.5 48C95.5 21.8 74.2 0.5 48 0.5ZM48 88.6C25.6 88.6 7.4 70.4 7.4 48C7.4 25.6 25.6 7.4 48 7.4C70.4 7.4 88.6 25.6 88.6 48C88.6 70.4 70.4 88.6 48 88.6Z" fill="white"/>
</g>
<defs>
<clipPath id="clip0_62_1938">
<rect width="96" height="96" fill="white"/>
</clipPath>
</defs>
</svg>
